<?xml version="1.0" encoding="utf-8"?>
<!-- Generator: Adobe Illustrator 23.0.0, SVG Export Plug-In . SVG Version: 6.00 Build 0)  -->
<svg version="1.1" id="Layer_1" xmlns="http://www.w3.org/2000/svg" xmlns:xlink="http://www.w3.org/1999/xlink" x="0px" y="0px"
	 viewBox="0 0 114.1 106.6" style="enable-background:new 0 0 114.1 106.6;" xml:space="preserve">
<style type="text/css">
	.st0{fill:#50A31A;}
	.st1{fill:#92E537;}
	.st2{fill:#296E0E;}
</style>
<g>
	<g>
		<g>
			<rect x="64.5" y="24.9" class="st0" width="11" height="22.3"/>
			<rect x="68.7" y="21.6" class="st0" width="2.6" height="6.8"/>
		</g>
		<g>
			<rect x="7.9" y="24.9" class="st1" width="11" height="22.3"/>
			<rect x="10" y="21.5" class="st1" width="6.9" height="7"/>
			<rect x="12.5" y="19" class="st1" width="1.8" height="6.7"/>
		</g>
		<g>
			<rect x="49.1" y="21.9" class="st2" width="16" height="25.4"/>
			<rect x="51.4" y="9.1" class="st2" width="11.5" height="20.7"/>
			<rect x="56.8" y="1.2" class="st2" width="0.8" height="12.3"/>
		</g>
		<g>
			<rect x="17.8" y="14.9" class="st0" width="16" height="32.4"/>
			<rect x="23.9" y="10.1" class="st0" width="3.8" height="9.9"/>
		</g>
		<g>
			<rect x="44.8" y="21.9" class="st0" width="16" height="25.4"/>
			<rect x="47.1" y="18.7" class="st0" width="11.5" height="11.1"/>
		</g>
		<g>
			<rect x="34.2" y="26.2" class="st1" width="14" height="21.1"/>
			<rect x="36.2" y="14.9" class="st1" width="10" height="18.1"/>
			<rect x="40.9" y="8.1" class="st1" width="0.7" height="10.8"/>
		</g>
		<g>
			<rect x="26.7" y="31.5" class="st2" width="11.6" height="15.8"/>
			<rect x="28.3" y="29.2" class="st2" width="8.3" height="8"/>
		</g>
	</g>
	<g>
		<path class="st2" d="M48.6,42.5c0.5-2.5,1-5.2,1-5.2c-14.3,3.5-23,3.8-24.2,6.6c-0.9,2.3,1.9,3.8,1.9,3.8c3.4-3.1,11-4.4,11-4.4
			c-4.8,1.8-9.1,4.9-9.1,4.9C43.2,49.2,47.8,46.4,48.6,42.5z"/>
		<path class="st0" d="M26.3,40.4c-2.4-2-4.2-4.1-4.2-4.1c-11.7,2.2-12,7.1-8.3,10c3,2.3,6.5,2.8,6.5,2.8c-2.6-3.5-0.8-6.6-0.8-6.6
			c-0.2,2.6,2.6,6.6,2.6,6.6C31.9,46.4,30.4,43.8,26.3,40.4z"/>
		<path class="st1" d="M9.8,42.7c-3.4-1.3-6.4-2.7-6.4-2.7c-3.6,5.4,1.6,10.2,5.8,11.5c3.4,1,5.9,0.5,5.9,0.5
			c-4.4-2.4-6.4-5.6-6.4-5.6c2.4,2.4,7.5,5.1,7.5,5.1C19.4,47.1,15.6,44.9,9.8,42.7z"/>
		<path class="st2" d="M61.2,83.9c0,2.9,0.1,6,0.1,6c11.7-5.6,20.4-5.6,21.7-8.4c1-2.2-1.9-3.7-1.9-3.7c-3.7,2.8-10.8,4.6-10.8,4.6
			c4.4-2.2,8.8-5.1,8.8-5.1C65.4,75.9,61.2,79.5,61.2,83.9z"/>
		<path class="st0" d="M82.1,84.9c2.5,2,4.2,4.1,4.2,4.1c11.9-2.6,12.9-6.5,9.2-9.3c-3-2.3-6.8-3-6.8-3c2.4,3.4,0.2,6.2,0.2,6.2
			c0.3-2.4-2.2-6.3-2.2-6.3C76.4,78.4,78,81.5,82.1,84.9z"/>
		<path class="st1" d="M99.4,83.2c3.5,1.4,6.6,2.9,6.6,2.9c4.5-4.3,0-9.1-4.5-10.6c-3.7-1.2-6.6-1-6.6-1c4.6,2.5,6.2,5.5,6.2,5.5
			c-2.3-2.3-7.5-5.2-7.5-5.2C89.2,78.6,93.3,80.8,99.4,83.2z"/>
		<path class="st2" d="M97.1,55.6c2.2-2.1,3.7-4.3,3.7-4.3c-8.5-10.1-12.9-9.6-15.5-6.2c-2.1,2.8-2.9,5.3-2.9,5.3
			c4.9-1.1,9.4,0,9.4,0c-3.7,0-9.4,1.4-9.4,1.4C86.3,58.6,93.1,59.3,97.1,55.6z"/>
		<path class="st0" d="M87.5,40.2c-0.6-4.8-1.5-9.5-1.5-9.5c-6.4-1.6-7.2,4.5-7.8,10.4c-0.4,4.2-0.3,6.7-0.3,6.7
			c3.6-4,5.5-7.6,5.5-7.6c-1.3,3.5-4.8,8.7-4.8,8.7C84.8,52.3,88.4,47.5,87.5,40.2z"/>
		<path class="st1" d="M78.2,34.1c-1.4-4.5-2.9-9-2.9-9C72,28.7,71.9,35.4,72,40.4c0,3.6,0.8,5.4,0.8,5.4c2.1-4.5,2.9-8.9,2.9-8.9
			c-0.3,4-2.1,9.5-2.1,9.5C79.3,47,80.3,41,78.2,34.1z"/>
		<path class="st2" d="M17,73.9c-1.6,2.5-2.7,5-2.7,5c8.8,10.3,13.1,9.8,14.8,5.7c1.4-3.2,1.6-6.3,1.6-6.3c-4.1,1.8-8.2,1-8.2,1
			c3.2-0.3,7.9-2.6,7.9-2.6C25.6,69.3,19.7,69.6,17,73.9z"/>
		<path class="st0" d="M27.8,90.1c1,5,1.9,9.8,1.9,9.8c6.3,1.6,6.8-4.9,6.4-11.5c-0.3-4.7-1-7.7-1-7.7c-2.4,5.3-3.5,9.1-3.5,9.1
			c0.8-3.9,2.7-10.2,2.7-10.2C28.2,76.4,26.2,82.2,27.8,90.1z"/>
		<path class="st1" d="M37,96.2c1.7,4.7,3.3,9.3,3.3,9.3c3.2-3.6,2.3-11.1,1.3-16.8c-0.7-4.1-1.8-6.1-1.8-6.1
			c-0.9,5.6-0.9,10.3-0.9,10.3c-0.3-4.5,0.1-11,0.1-11C34,82,34.3,88.7,37,96.2z"/>
		<path class="st2" d="M76.3,40.3c0-4.8-1.1-9.9-1.1-9.9C68.7,31.6,66.1,38,63,42.2c-2.5,3.3-2.9,4.8-2.9,4.8
			c6.2-2.2,10.8-5.8,10.8-5.8c-3,3.5-10.1,6.6-10.1,6.6C69.6,51,76.3,47.2,76.3,40.3z"/>
		<path class="st0" d="M65.2,36.3c-1-4.1-2.6-8.5-2.6-8.5c-3.7,7.3-9.3,11.5-10.8,14.9c-1.2,2.6,0.5,3.9,0.5,3.9
			c3.9-2.9,8-6.6,8-6.6c-2.2,3.6-6.5,7.2-6.5,7.2C64.1,47.9,66.7,42.3,65.2,36.3z"/>
		<path class="st1" d="M53.6,38.3c-0.9-2.3-1.7-4.8-1.7-4.8c-7.2,5.6-12.2,6.8-11.7,9.3c0.5,1.9,3.1,3,3.1,3c1.2-2.7,4.8-5,4.8-5
			c-1.8,2.3-3.2,5.3-3.2,5.3C54.4,46,55.1,42,53.6,38.3z"/>
		<path class="st2" d="M37.8,89.2c0.8,5.4,2.3,10.8,2.3,10.8c5.9-1.5,6.9-8.8,8.8-14.2c1.4-3.9,1.5-5.9,1.5-5.9
			c-5.2,3.2-8,7.8-8,7.8c1.8-4.1,7.3-8.7,7.3-8.7C41.4,76.2,36.7,81.4,37.8,89.2z"/>
		<path class="st0" d="M48.3,92.7c1.7,4.5,3.7,9.3,3.7,9.3c2.1-7.9,5.7-14,6.4-18c0.5-2.9-1.1-4.3-1.1-4.3c-3.1,3.6-5.6,8.4-5.6,8.4
			c1-4.2,4.2-8.9,4.2-8.9C46.8,79.1,45.8,85.9,48.3,92.7z"/>
		<path class="st1" d="M57.7,89.1c1.3,2.6,2.5,5.3,2.5,5.3c4.6-6.7,9.4-8.9,8.6-11.5c-0.6-2-3.2-3-3.2-3c-0.8,3-3.6,5.9-3.6,5.9
			c1.2-2.7,2-6.1,2-6.1C55.5,80.2,55.6,85,57.7,89.1z"/>
		<path class="st2" d="M98.2,78.9c3.6,2,6.7,4.2,6.7,4.2c7.4-5.2,1.5-13.5-3.2-15.8c-3.8-1.8-6.5-1.2-6.5-1.2
			c4.7,3.7,6.1,8.3,6.1,8.3c-2.1-3.4-7.4-7.7-7.4-7.7C89.4,73.1,92,75.5,98.2,78.9z"/>
		<path class="st0" d="M107.4,69.7c3-0.5,5.8-1,5.8-1c-5.9-10.4-11.6-12.1-14.9-10.7c-3,1.3-4.3,3.2-4.3,3.2c5.2,0.4,9.6,3,9.6,3
			c-3.8-1.4-9.9-1.8-9.9-1.8C95.4,68.6,101.5,70.6,107.4,69.7z"/>
		<path class="st1" d="M102.3,56.4c1-2.5,1.6-5,1.6-5c-6.6-6-9.4-4.1-11-0.6c-1.2,2.7-1.4,5-1.4,5c3.4-1.9,6.5-2.4,6.5-2.4
			c-2.4,1.1-6.2,3.5-6.2,3.5C96,61.9,100.6,60.5,102.3,56.4z"/>
		<path class="st2" d="M11.5,47.3c-3.5-1.9-6.6-4.1-6.6-4.1c-6.1,7.1,1.4,15.6,5.8,17.7c3.6,1.7,5.8,0.6,5.8,0.6
			c-4.7-3.8-6.9-8.9-6.9-8.9c2.5,3.7,7.9,8,7.9,8C19.8,53.6,17.6,50.6,11.5,47.3z"/>
		<path class="st0" d="M5.5,58.8c-2.5,0.9-4.8,1.7-4.8,1.7c6.9,11,12.2,12.7,14.9,10.7c2.3-1.7,3-4.1,3-4.1
			c-4.5,0.1-8.8-2.4-8.8-2.4c3.5,1.2,8.8,1.1,8.8,1.1C15.8,58.7,10.3,57.2,5.5,58.8z"/>
		<path class="st1" d="M12.3,73.4c-0.6,2.9-0.9,5.6-0.9,5.6c6.7,6.1,9.2,4,10-0.1c0.6-3.1,0.4-5.8,0.4-5.8c-2.7,2.7-5.3,3.3-5.3,3.3
			c2-1.3,4.8-4.5,4.8-4.5C16.8,66.6,13.2,68.8,12.3,73.4z"/>
	</g>
</g>
<g>
	<path class="st2" d="M28.6,64.6h-7.1V49.7h7.1v0.4h-6.7v5.7h4.9l-0.1,0.4h-4.7v8h6.7V64.6z"/>
	<path class="st2" d="M35.3,64.4c1,0,2.2-0.2,3.4-0.7l0.1,0.4c-1.2,0.5-2.4,0.7-3.5,0.7c-0.2,0-0.6,0-1-0.1c-0.5,0-1-0.2-1.5-0.5
		c-0.5-0.3-0.9-0.7-1.3-1.3c-0.3-0.6-0.5-1.4-0.5-2.3v-6.8c0-1.1,0.2-1.9,0.5-2.5c0.3-0.6,0.8-1,1.4-1.4c0.6-0.4,1.4-0.5,2.3-0.5
		c1.2,0,2.2,0.2,3,0.7l-0.2,0.4c-1-0.4-1.9-0.7-2.8-0.7c-0.6,0-1.2,0.1-1.7,0.3c-0.5,0.2-0.9,0.4-1.1,0.7c-0.3,0.3-0.5,0.6-0.7,1.1
		c-0.2,0.5-0.3,1.1-0.3,1.7v7c0,0.9,0.2,1.7,0.6,2.3c0.4,0.6,0.8,1,1.4,1.2C34.1,64.3,34.7,64.4,35.3,64.4z"/>
	<path class="st2" d="M49.2,53.8v6.8c0,1.4-0.4,2.5-1.3,3.2c-0.9,0.7-1.9,1-3.1,1c-1.2,0-2.3-0.3-3.2-1c-0.9-0.7-1.3-1.7-1.3-3.2
		v-6.9c0-1.5,0.4-2.6,1.2-3.3c0.8-0.8,1.9-1.1,3.3-1.1s2.5,0.4,3.3,1.2C48.8,51.3,49.2,52.4,49.2,53.8z M48.8,60.7v-7
		c0-1.2-0.3-2.2-1-2.9c-0.7-0.7-1.7-1.1-3-1.1c-1.4,0-2.4,0.4-3,1.1c-0.7,0.7-1,1.7-1,2.9v6.9c0,1.2,0.4,2.2,1.2,2.8
		s1.8,0.9,2.9,0.9c1.1,0,2.1-0.3,2.9-0.9C48.4,62.9,48.8,62,48.8,60.7z"/>
</g>
<g>
	<path class="st2" d="M32.3,76.6h-1.1V65.7h5.2v1.1h-4.1v3.4h2.5l-0.4,1.1h-2.1V76.6z"/>
	<path class="st2" d="M44.9,76.6h-1.2L42.6,73c-0.2,0-0.4,0-0.5,0h-2.8v3.6h-1.1V65.7H42c1,0,1.7,0.3,2.2,1c0.5,0.6,0.7,1.5,0.7,2.5
		c0,1.3-0.2,2.2-0.6,2.8c-0.2,0.3-0.4,0.5-0.7,0.7L44.9,76.6z M39.3,71.9h2.6c0.6,0,1.1-0.2,1.3-0.5c0.1-0.2,0.2-0.3,0.3-0.5
		c0.1-0.2,0.1-0.4,0.2-0.6c0-0.3,0.1-0.7,0.1-1.1c0-1.6-0.7-2.4-2-2.4h-2.5V71.9z"/>
	<path class="st2" d="M48.9,76.6h-1.1v-9.9l-1,0v-1h2.2V76.6z"/>
	<path class="st2" d="M56.5,76.6h-5.2V65.7h5.2v1.1h-4.1v3.4h2.7l-0.4,1.1h-2.4v4.3h4.1V76.6z"/>
	<path class="st2" d="M66.2,76.6h-1.1l-5.4-8.7v8.7h-1.1V65.7h1.1l5.4,8.7v-8.7h1.1V76.6z"/>
	<path class="st2" d="M71.9,76.6h-3.2V65.7h2.9c1.2,0,2.1,0.3,2.7,1c0.6,0.6,0.9,1.5,0.9,2.6v4.3C75.2,75.6,74.1,76.6,71.9,76.6z
		 M74.1,73.6V69c0-0.8-0.2-1.4-0.7-1.7c-0.5-0.4-1-0.6-1.7-0.6h-2v8.8h1.9c1.2,0,1.9-0.3,2.2-0.9C74,74.4,74.1,74,74.1,73.6z"/>
	<path class="st2" d="M83.3,76.6h-5.6V65.7h1.1v9.9h4.5V76.6z"/>
	<path class="st2" d="M86.5,76.8L86.2,76c0.3-0.1,0.5-0.3,0.7-0.5c0.2-0.3,0.3-0.7,0.3-1.3v-1.8c-0.5,0.4-1.3,0.7-2.3,0.7
		c-1,0-1.9-0.3-2.5-0.8c-0.6-0.6-1-1.4-1-2.4v-4h1.1v4.1c0,0.7,0.2,1.2,0.7,1.6c0.4,0.4,1,0.5,1.6,0.5c0.7,0,1.2-0.1,1.6-0.3
		c0.4-0.2,0.7-0.5,0.8-0.9v-4.9h1.1v8.5C88.3,75.7,87.7,76.6,86.5,76.8z"/>
</g>
<g>
	<path class="st2" d="M75,58c1.4-1.9,3-3.5,3-3.5c-6-2-10.3-0.1-12.2,2.5c-1.5,2.1-1.2,3.8-1.2,3.8c2.8-2.5,6.2-3.5,6.2-3.5
		c-2.6,1.3-5.8,4.2-5.8,4.2C69.6,63.6,72.7,61.1,75,58z"/>
	<path class="st0" d="M67.9,53.7c0.1-2.1,0.5-4.2,0.5-4.2c-5.6,1.5-8,5.2-8.1,8.1c-0.1,2.4,1,3.5,1,3.5c0.8-3.4,3-5.9,3-5.9
		C63,57.6,62,61.4,62,61.4C66.6,60.8,67.7,57.3,67.9,53.7z"/>
	<path class="st1" d="M60.7,54c-0.6-1.7-1-3.5-1-3.5c-3.9,3-4.6,6.6-3.7,9c0.7,1.9,1.9,2.4,1.9,2.4c-0.4-2.9,0.5-5.6,0.5-5.6
		c-0.3,2.3,0.1,5.6,0.1,5.6C62,60,61.7,56.9,60.7,54z"/>
</g>
</svg>
