<?xml version="1.0" encoding="utf-8"?>
<!-- Generator: Adobe Illustrator 23.0.0, SVG Export Plug-In . SVG Version: 6.00 Build 0)  -->
<svg version="1.1" id="Calque_1" xmlns="http://www.w3.org/2000/svg" xmlns:xlink="http://www.w3.org/1999/xlink" x="0px" y="0px"
	 viewBox="0 0 173 123.9" style="enable-background:new 0 0 173 123.9;" xml:space="preserve">
<style type="text/css">
	.st0{fill:#A0D400;}
	.st1{fill:url(#SVGID_1_);}
	.st2{fill:url(#SVGID_2_);}
	.st3{fill:url(#SVGID_3_);}
	.st4{fill:#FFFFFF;}
	.st5{fill:url(#SVGID_4_);}
	.st6{fill:url(#SVGID_5_);}
</style>
<g id="Background">
</g>
<g id="Objects">
	<g>
		<g>
			<g>
				<path class="st0" d="M31.1,69.4c2.8-0.6,7.1-1,11.5-1c6.3,0,10.4,1.1,13.4,3.6c2.5,1.9,4.1,4.8,4.1,8.6c0,4.7-3.1,8.9-8.3,10.7
					v0.1c4.6,1.2,10.1,5,10.1,12.3c0,4.2-1.7,7.4-4.1,9.8c-3.4,3.1-8.9,4.6-16.9,4.6c-4.4,0-7.7-0.3-9.8-0.6
					C31.1,117.5,31.1,69.4,31.1,69.4z M37.4,89.5h5.7c6.7,0,10.6-3.5,10.6-8.2c0-5.7-4.4-8-10.7-8c-2.9,0-4.6,0.2-5.6,0.4
					C37.4,73.7,37.4,89.5,37.4,89.5z M37.4,112.9c1.2,0.2,3,0.3,5.3,0.3c6.5,0,12.6-2.4,12.6-9.5c0-6.7-5.7-9.4-12.6-9.4h-5.2v18.6
					H37.4z"/>
				<path class="st0" d="M76.8,68.8v48.9h-6.3V68.8H76.8z"/>
				<path class="st0" d="M126.7,92.7c0,16.8-10.2,25.8-22.7,25.8c-12.9,0-22-10-22-24.8C82,78.1,91.7,68,104.7,68
					C118.1,68,126.7,78.2,126.7,92.7z M88.8,93.5c0,10.5,5.7,19.8,15.6,19.8c10,0,15.7-9.2,15.7-20.3c0-9.7-5.1-19.9-15.6-19.9
					S88.8,82.8,88.8,93.5z"/>
			</g>
			
				<radialGradient id="SVGID_1_" cx="87.65" cy="66.2898" r="42.791" gradientTransform="matrix(1 0 0 -1 0 157.8898)" gradientUnits="userSpaceOnUse">
				<stop  offset="0" style="stop-color:#A0D400"/>
				<stop  offset="0.1509" style="stop-color:#98D103"/>
				<stop  offset="0.3887" style="stop-color:#81CB0C"/>
				<stop  offset="0.6835" style="stop-color:#5CBF1A"/>
				<stop  offset="0.9937" style="stop-color:#2EB12C"/>
			</radialGradient>
			<path class="st1" d="M33.1,113.7V70.9c0-2.2,1.8-4,4-4c0.1,0,0.1,0,0.2,0c0,0,0,0,0.1,0h10c7.6,0,13.8,6.2,13.8,13.8
				c0,3.1-1,6-2.8,8.3c4.4,2.8,7.3,7.6,7.3,13.1c0,8.6-7,15.6-15.5,15.6H37.4c-0.1,0-0.1-0.1-0.1-0.1c-0.1,0-0.1,0.1-0.2,0.1
				C35,117.7,33.1,115.9,33.1,113.7z M41.2,86.6h6.2c3.2,0,5.7-2.7,5.7-5.9c0-3.2-2.5-5.7-5.7-5.7h-6.2V86.6z M41.2,109.6h9.1
				c4.1-0.1,7.5-3.3,7.5-7.5c0-4.1-3.3-7.4-7.5-7.5h-9.1C41.2,94.6,41.2,109.6,41.2,109.6z M76.1,70.9c0-2.2,1.7-4,4-4
				c2.2,0,4.1,1.7,4.1,4v42.8c0,2.3-1.9,4-4.1,4s-4-1.7-4-4V70.9z M134.9,73.2c4.5,4.8,7.3,11.2,7.3,18.4c0,7.2-2.8,13.6-7.3,18.4
				c-4.3,4.7-10.7,7.8-17.4,7.8c-7,0-13.4-3.1-17.8-7.8c-4.5-4.7-7.2-11.2-7.2-18.4c0-7.2,2.7-13.6,7.2-18.4
				c4.4-4.8,10.8-7.8,17.8-7.8C124.2,65.4,130.6,68.4,134.9,73.2z M133.9,91.6c0-4.9-2-9.5-4.9-12.7c-3.1-3.3-7.1-5.2-11.5-5.2
				c-4.6,0-8.7,1.9-11.8,5.2c-3.1,3.2-4.9,7.8-4.9,12.7s1.9,9.5,4.9,12.6c3,3.3,7.1,5.2,11.8,5.2c4.4,0,8.4-2,11.5-5.2
				C131.9,101.1,133.9,96.5,133.9,91.6z"/>
		</g>
		<g>
			<g>
				<g>
					
						<linearGradient id="SVGID_2_" gradientUnits="userSpaceOnUse" x1="-22.7036" y1="-4.2418" x2="-22.7036" y2="88.3575" gradientTransform="matrix(0.9414 0.3373 0.3373 -0.9414 118.4832 104.7415)">
						<stop  offset="0" style="stop-color:#2C9400"/>
						<stop  offset="1" style="stop-color:#87B800"/>
					</linearGradient>
					<path class="st2" d="M96.9,63.3c-1.7-9.5-3.7-23.5,5.4-32s26,0.3,37-13c0,0,4.4,18.7-6.4,31.4C122.1,62.5,107.7,50.4,96.9,63.3
						z"/>
					
						<linearGradient id="SVGID_3_" gradientUnits="userSpaceOnUse" x1="-9.5475" y1="60.7169" x2="-42.313" y2="60.7169" gradientTransform="matrix(0.9414 0.3373 0.3373 -0.9414 118.4832 104.7415)">
						<stop  offset="0" style="stop-color:#2C9400"/>
						<stop  offset="1" style="stop-color:#A0D400"/>
					</linearGradient>
					<path class="st3" d="M98.3,57.7c2.7-5.8,5.8-12,11.4-15.5c6.8-4.2,15.9-4.4,22-10c4.5-4.1,5.3-8.9,7.4-13.8
						c-11,13.1-27.8,4.4-36.9,12.9c-8.6,8-7.3,20.9-5.7,30.3C97.2,60.2,97.8,58.9,98.3,57.7z"/>
				</g>
				<g>
					<path class="st4" d="M94.3,66.6c0,0,0.2-0.8,0.4-2.3c0.3-1.5,0.7-3.6,1.4-6.1c0.3-1.3,0.8-2.6,1.3-4c0.6-1.4,1.2-2.9,2-4.3
						c0.8-1.4,1.8-2.9,2.9-4.2c0.5-0.7,1.2-1.3,1.8-1.9c0.7-0.6,1.3-1.2,2-1.7l1-0.8c0.4-0.3,0.7-0.5,1.1-0.7
						c0.8-0.5,1.5-0.8,2.3-1.2c1.6-0.7,3.2-1.1,4.8-1.4c3.1-0.6,6.1-0.8,8.5-1.3c1.2-0.3,2.3-0.6,3.2-1c0.9-0.4,1.7-0.9,2.2-1.3
						c0.6-0.4,1-0.8,1.3-1.1s0.4-0.4,0.4-0.4s-0.1,0.2-0.4,0.5c-0.3,0.3-0.6,0.7-1.2,1.2c-0.6,0.5-1.3,1-2.2,1.5
						c-0.9,0.5-2,1-3.2,1.3c-2.4,0.8-5.4,1.2-8.3,2c-1.5,0.4-3,1-4.3,1.7c-0.7,0.4-1.4,0.8-2,1.2c-0.7,0.5-1.3,1-1.9,1.5
						c-1.2,1.1-2.3,2.2-3.2,3.5c-0.9,1.2-1.7,2.6-2.3,3.9c-0.7,1.3-1.1,2.7-1.5,4s-0.7,2.6-0.9,3.8c-0.5,2.4-0.7,4.4-0.9,5.8
						c-0.2,1.4-0.3,2.3-0.3,2.3L94.3,66.6z"/>
				</g>
			</g>
			<g>
				<g>
					
						<linearGradient id="SVGID_4_" gradientUnits="userSpaceOnUse" x1="305.2532" y1="17.8389" x2="305.2532" y2="110.4334" gradientTransform="matrix(0.7426 -0.6698 -0.6698 -0.7426 -84.6443 300.2007)">
						<stop  offset="0" style="stop-color:#2C9400"/>
						<stop  offset="1" style="stop-color:#87B800"/>
					</linearGradient>
					<path class="st5" d="M97.4,63.6c-9.2-3-22.4-7.9-25.6-19.9s12.6-22.7,6-38.8c0,0,18.5,4.9,24.6,20.5
						C108.6,40.9,91.2,47.9,97.4,63.6z"/>
					
						<linearGradient id="SVGID_5_" gradientUnits="userSpaceOnUse" x1="318.4774" y1="82.7396" x2="285.7136" y2="82.7396" gradientTransform="matrix(0.7426 -0.6698 -0.6698 -0.7426 -84.6443 300.2007)">
						<stop  offset="0" style="stop-color:#2C9400"/>
						<stop  offset="1" style="stop-color:#A0D400"/>
					</linearGradient>
					<path class="st6" d="M93.2,59.6c-3.8-5.1-7.8-10.8-8.2-17.4c-0.5-8,3.6-16.1,1.6-24.1C85.1,12.2,81.2,9.2,78,5
						c6.4,15.9-9.3,26.6-6.1,38.6c3,11.4,15,16.3,24,19.4C94.9,61.8,93.9,60.6,93.2,59.6z"/>
				</g>
				<g>
					<path class="st4" d="M99.1,67.4c0,0-0.7-0.5-1.8-1.4c-1.2-0.9-2.8-2.3-4.7-4.1c-0.9-0.9-1.9-1.9-2.9-3c-1-1.2-2-2.4-2.8-3.8
						c-0.9-1.4-1.7-2.9-2.3-4.5c-0.3-0.8-0.6-1.6-0.8-2.5c-0.2-0.9-0.4-1.7-0.5-2.6L83,44.1c0-0.5-0.1-0.8-0.1-1.3
						c0-0.9,0-1.8,0.1-2.6c0.2-1.7,0.5-3.4,1-4.9c1-3.1,2.2-5.7,2.9-8.1c0.3-1.2,0.5-2.3,0.6-3.3s0-1.9-0.1-2.6S87.1,20,87,19.7
						c-0.1-0.4-0.2-0.6-0.2-0.6s0.1,0.2,0.2,0.6s0.3,0.9,0.5,1.6s0.3,1.6,0.3,2.6s-0.1,2.2-0.3,3.5c-0.5,2.5-1.5,5.3-2.2,8.3
						c-0.3,1.5-0.6,3.1-0.6,4.6c0,0.8,0,1.6,0.1,2.3c0.1,0.8,0.3,1.6,0.4,2.4c0.2,0.8,0.4,1.5,0.7,2.3c0.3,0.7,0.5,1.5,0.9,2.2
						c0.6,1.4,1.5,2.7,2.3,3.9c0.9,1.2,1.9,2.3,2.8,3.3c1,1,1.9,1.8,2.9,2.6c1.9,1.5,3.5,2.7,4.7,3.6c1.2,0.8,1.9,1.3,1.9,1.3
						L99.1,67.4z"/>
				</g>
			</g>
		</g>
	</g>
</g>
</svg>
