<?xml version="1.0" encoding="utf-8"?>
<!-- Generator: Adobe Illustrator 23.0.0, SVG Export Plug-In . SVG Version: 6.00 Build 0)  -->
<svg version="1.1" id="Layer_1" xmlns="http://www.w3.org/2000/svg" xmlns:xlink="http://www.w3.org/1999/xlink" x="0px" y="0px"
	 viewBox="0 0 806.7 512" style="enable-background:new 0 0 806.7 512;" xml:space="preserve">
<style type="text/css">
	.st0{fill:none;}
	.st1{fill:url(#SVGID_1_);}
	.st2{fill:url(#SVGID_2_);}
	.st3{fill:url(#SVGID_3_);}
	.st4{fill:url(#SVGID_4_);}
	.st5{fill:url(#SVGID_5_);}
	.st6{fill:url(#SVGID_6_);}
	.st7{fill:url(#SVGID_7_);}
	.st8{fill:url(#SVGID_8_);}
	.st9{fill:url(#SVGID_9_);}
	.st10{fill:url(#SVGID_10_);}
	.st11{fill:url(#SVGID_11_);}
	.st12{fill:url(#SVGID_12_);}
	.st13{fill:url(#SVGID_13_);}
	.st14{fill:url(#SVGID_14_);}
	.st15{fill:url(#SVGID_15_);}
	.st16{fill:url(#SVGID_16_);}
	.st17{fill:url(#SVGID_17_);}
	.st18{fill:url(#SVGID_18_);}
	.st19{fill:url(#SVGID_19_);}
	.st20{fill:url(#SVGID_20_);}
	.st21{fill:url(#SVGID_21_);}
	.st22{fill:url(#SVGID_22_);}
	.st23{fill:url(#SVGID_23_);}
	.st24{fill:url(#SVGID_24_);}
	.st25{fill:url(#SVGID_25_);}
	.st26{fill:url(#SVGID_26_);}
	.st27{fill:url(#SVGID_27_);}
	.st28{fill:url(#SVGID_28_);}
	.st29{fill:url(#SVGID_29_);}
	.st30{fill:url(#SVGID_30_);}
	.st31{fill:url(#SVGID_31_);}
	.st32{fill:url(#SVGID_32_);}
	.st33{fill:url(#SVGID_33_);}
	.st34{fill:url(#SVGID_34_);}
	.st35{fill:url(#SVGID_35_);}
</style>
<title>logo</title>
<path class="st0" d="M806.7,382.8c0,0,0-0.1,0-0.1c0,0,0-0.1,0-0.1V382.8z"/>
<linearGradient id="SVGID_1_" gradientUnits="userSpaceOnUse" x1="-3.003282e-02" y1="196.1384" x2="-1.000531e-02" y2="196.1384">
	<stop  offset="0" style="stop-color:#FFE09F"/>
	<stop  offset="0.5021" style="stop-color:#FFA89F"/>
	<stop  offset="1" style="stop-color:#FFFFFF"/>
</linearGradient>
<path class="st1" d="M0,196.3c0,0.1,0,0.1,0,0.2v-0.6C0,196,0,196.1,0,196.3z"/>
<linearGradient id="SVGID_2_" gradientUnits="userSpaceOnUse" x1="766.4468" y1="191.315" x2="847.0132" y2="191.315">
	<stop  offset="0" style="stop-color:#FFE09F"/>
	<stop  offset="0.5021" style="stop-color:#FFA89F"/>
	<stop  offset="1" style="stop-color:#FFFFFF"/>
</linearGradient>
<path class="st2" d="M806.7,0v382.5c0,0,0,0.1,0,0.1L806.7,0L806.7,0z"/>
<linearGradient id="SVGID_3_" gradientUnits="userSpaceOnUse" x1="766.4468" y1="447.31" x2="847.0132" y2="447.31">
	<stop  offset="0" style="stop-color:#FFE09F"/>
	<stop  offset="0.5021" style="stop-color:#FFA89F"/>
	<stop  offset="1" style="stop-color:#FFFFFF"/>
</linearGradient>
<path class="st3" d="M806.7,512L806.7,512l0-129.4c0,0,0,0.1,0,0.1V512z"/>
<linearGradient id="SVGID_4_" gradientUnits="userSpaceOnUse" x1="-2.001372e-02" y1="354.21" x2="80.0581" y2="354.21">
	<stop  offset="0" style="stop-color:#FFE09F"/>
	<stop  offset="0.5021" style="stop-color:#FFA89F"/>
	<stop  offset="1" style="stop-color:#FF729A"/>
</linearGradient>
<path class="st4" d="M0,196.4V512h0V196.6C0,196.5,0,196.5,0,196.4z"/>
<linearGradient id="SVGID_5_" gradientUnits="userSpaceOnUse" x1="-2.001372e-02" y1="119.385" x2="806.73" y2="119.385">
	<stop  offset="0" style="stop-color:#FFE09F"/>
	<stop  offset="0.5021" style="stop-color:#FFA89F"/>
	<stop  offset="1" style="stop-color:#FF729A"/>
</linearGradient>
<path class="st5" d="M154.2,85.4c-0.2,0-0.4,0-0.6,0v0c-39-0.6-75,21.2-92.6,56c-2,4.3-0.1,9.4,4.1,11.3c4.1,1.9,9,0.3,11.2-3.8
	c14.7-29,44.8-47,77.3-46.5c4.7,0.2,8.7-3.5,8.8-8.2S158.9,85.5,154.2,85.4z"/>
<linearGradient id="SVGID_6_" gradientUnits="userSpaceOnUse" x1="-9.977254e-03" y1="256.0199" x2="806.74" y2="256.0199">
	<stop  offset="0" style="stop-color:#FFE09F"/>
	<stop  offset="0.5021" style="stop-color:#FFA89F"/>
	<stop  offset="1" style="stop-color:#FF729A"/>
</linearGradient>
<path class="st6" d="M250.7,504.6l8.2-60.6l-16.9-2.2l-1.4,10.4H66.6L35.4,221.9h236.5l-2.6,19l16.9,2.1l3.1-22.7
	c3.7-1.2,7-3.1,9.8-5.8c5.2-4.7,8.1-11.3,8.1-18.3c-0.2-10.9-7.2-20.6-17.6-24c-3.1-34.7-19.9-66.8-46.8-89l34.7-63
	c1.4-1.8,3.4-2.9,5.6-3.1c2.2-0.1,4.4,0.7,5.9,2.3L318.3,48c3.4,3.3,8.8,3.2,12.1-0.1s3.2-8.8-0.1-12.1l0,0L300.9,7.1
	c-5.1-5-12.1-7.6-19.2-7c-7.3,0.7-14,4.5-18.3,10.4c-0.2,0.3-0.4,0.6-0.6,0.9L229,73c-22.5-14.3-48.6-21.9-75.3-21.8
	c-69.9-1.1-129,51.5-136,121c-3.6,1.2-6.8,3.1-9.5,5.7c-5,4.5-7.9,10.8-8.1,17.5v1.2c0.3,10.9,7.5,20.4,17.9,23.7l38.6,284.3
	c0.6,4.2,4.2,7.4,8.5,7.4h177.2C246.5,512,250.1,508.8,250.7,504.6z M153.6,68.3c26-0.1,51.3,8.1,72.3,23.3c0.5,0.6,1.1,1.1,1.7,1.5
	c0.1,0,0.2,0.1,0.2,0.1c24.8,18.7,40.8,46.7,44.5,77.5H34.8C42.6,111.3,93.8,67.2,153.6,68.3z M17.1,196.3c0-2.3,1-4.4,2.8-5.9
	c1.9-1.7,4.3-2.7,6.8-2.6h253.9c5-0.2,9.2,3.6,9.6,8.5h0c0,2.3-1,4.4-2.8,5.9c-1.9,1.7-4.3,2.7-6.9,2.6H26.7
	C21.7,205,17.4,201.2,17.1,196.3z M234.8,494.9H72.4L69,469.3h169.3L234.8,494.9z"/>
<linearGradient id="SVGID_7_" gradientUnits="userSpaceOnUse" x1="-2.001372e-02" y1="97.9234" x2="80.0581" y2="97.9234">
	<stop  offset="0" style="stop-color:#FFE09F"/>
	<stop  offset="0.5021" style="stop-color:#FFA89F"/>
	<stop  offset="1" style="stop-color:#FF729A"/>
</linearGradient>
<path class="st7" d="M0,0L0,0l0,195.8c0-0.1,0-0.3,0-0.4V0z"/>
<linearGradient id="SVGID_8_" gradientUnits="userSpaceOnUse" x1="-2.001372e-02" y1="281.596" x2="806.73" y2="281.596">
	<stop  offset="0" style="stop-color:#FFE09F"/>
	<stop  offset="0.5021" style="stop-color:#FFA89F"/>
	<stop  offset="1" style="stop-color:#FF729A"/>
</linearGradient>
<path class="st8" d="M245,275.5c-2.5-2.4-6.1-3.1-9.3-1.8c-2.1,0.8-3.8,2.5-4.6,4.6c-0.4,1-0.7,2.1-0.7,3.2c0,2.3,0.9,4.4,2.5,6.1
	c0.8,0.8,1.8,1.4,2.8,1.8c2.1,0.9,4.4,0.9,6.5,0c1-0.4,2-1,2.8-1.8c1.6-1.6,2.4-3.8,2.5-6.1c0-1.1-0.2-2.2-0.7-3.2
	C246.3,277.3,245.7,276.4,245,275.5z"/>
<linearGradient id="SVGID_9_" gradientUnits="userSpaceOnUse" x1="-2.001372e-02" y1="247.4295" x2="806.73" y2="247.4295">
	<stop  offset="0" style="stop-color:#FFE09F"/>
	<stop  offset="0.5021" style="stop-color:#FFA89F"/>
	<stop  offset="1" style="stop-color:#FF729A"/>
</linearGradient>
<path class="st9" d="M200,254.5c0.5,0.3,1,0.6,1.5,0.8c0.5,0.2,1,0.4,1.5,0.5c0.6,0.1,1.1,0.2,1.7,0.2c1.1,0,2.2-0.2,3.3-0.7
	c1-0.4,2-1,2.8-1.8l1-1.3c0.3-0.5,0.6-1,0.8-1.5c0.2-0.5,0.4-1,0.5-1.5c0.1-0.6,0.2-1.1,0.2-1.7c0-2.2-0.9-4.4-2.4-6
	c-0.8-0.8-1.8-1.4-2.8-1.8c-1.6-0.7-3.3-0.9-5-0.5c-0.5,0.1-1,0.3-1.5,0.5c-0.5,0.2-1.1,0.4-1.5,0.8l-1.3,1
	c-0.8,0.8-1.4,1.8-1.8,2.8c-0.4,1-0.7,2.1-0.7,3.3c0,2.3,0.9,4.4,2.5,6.1L200,254.5z"/>
<linearGradient id="SVGID_10_" gradientUnits="userSpaceOnUse" x1="-2.001372e-02" y1="389.3" x2="806.73" y2="389.3">
	<stop  offset="0" style="stop-color:#FFE09F"/>
	<stop  offset="0.5021" style="stop-color:#FFA89F"/>
	<stop  offset="1" style="stop-color:#FF729A"/>
</linearGradient>
<path class="st10" d="M445.9,379.5c-3,2.2-5.9,4.3-8.6,6.1c-14,9-25,13.5-33.1,13.5h-0.4c-2.2,0.1-4.3-0.5-6.2-1.6
	c-2.1-1.3-3.8-3.9-5-7.9c-0.6-3.3-1.5-6.5-2.7-9.7c-2.5-4.9-6.1-7.4-10.9-7.4c-2.4,0.1-4.7,0.7-6.9,1.7c-3,1.1-7.9,4.6-14.7,10.3
	c-4.8,4.3-7.3,6.5-7.6,6.8c-1.9,2-3.5,3-4.8,3c-0.2-0.1-0.4-0.1-0.6-0.1c-0.9-0.4-1.5-1.4-1.4-2.4v-0.3l0-0.5c0,0,0,0,0-0.1h0
	c0.2-3.4,0.2-5.8,0.2-6.9v-0.6c0.2-3.3-0.8-6.6-2.9-9.2c-1.9-2.3-4.8-3.7-7.8-3.7h-0.9c-4.1,0-8.9,2.3-14.4,6.9
	c-1.4,0.8-4.9,4.1-10.8,9.9c-2.3,2.5-3.9,3.8-4.9,3.8c-0.6,0-0.9-0.4-0.9-1.2c0-1.9,1.3-5.2,3.9-10c1-1.1,1.6-2.5,1.7-3.9l-0.1-1
	c-0.8-2.2-2.2-3.3-4.1-3.3h-0.2c-1.1,0-2.2,0.5-3,1.3c-0.9,1.3-1.8,2.7-2.6,4.1c-0.4,0.7-0.7,1.5-1,2.2c0.8-0.4,1.6-0.7,2.5-0.9h0.1
	c2,0,3.3,1.1,4.2,3.2c0.1,0.3,0.1,0.7,0.1,1v0.2c0,1.8-1.3,3.4-3.8,4.8c-2.4,1.8-4.9,3.4-7.5,4.9c-0.4,2.1-0.6,4.1-0.6,6.1
	c-0.1,2.1,0.3,4.1,1.2,6c1.4,2.3,3.1,3.5,5.3,3.5c0.4,0,0.8-0.1,1.2-0.2c1.3-0.5,3-1.9,5.3-4.4c14.3-16.2,23.9-24.4,28.8-24.4
	c1.6,0,2.5,1.4,2.5,4.1v0.7l-0.3,10.7c-0.1,2.4,0.3,4.7,1,7c0.9,2.9,3.7,4.7,6.7,4.5h0.1c0.8,0.1,1.5-0.1,2.2-0.3
	c2-0.4,6-3.3,12-8.7c11.4-10.5,18.8-15.8,22.3-15.8h0.7c1.4,0,2.5,1.2,3.3,3.5c1.5,6.8,2.8,11.2,3.8,13.2c2.9,6.6,8.5,9.9,16.8,9.9
	c8.9,0,19.5-3.5,31.6-10.6c2.9-1.6,5.7-3.4,8.4-5.3c0-0.1,0-0.3,0-0.4C443.3,387.4,444.2,383.3,445.9,379.5z"/>
<linearGradient id="SVGID_11_" gradientUnits="userSpaceOnUse" x1="-2.001372e-02" y1="292.5594" x2="806.73" y2="292.5594">
	<stop  offset="0" style="stop-color:#FFE09F"/>
	<stop  offset="0.5021" style="stop-color:#FFA89F"/>
	<stop  offset="1" style="stop-color:#FF729A"/>
</linearGradient>
<path class="st11" d="M247.3,249.1c-0.1,0.5-0.3,1.1-0.5,1.5c-0.2,0.5-0.4,1.1-0.8,1.5c-0.2,0.3-0.4,0.5-0.6,0.8
	c3.3-0.8,6.5-1.2,9.6-1.2h1.4c8.7,0,16.2,3.4,22.5,10.1c5.5,6.4,8.5,14.6,8.4,23v1.5c0,7.9-2.4,16.3-7.3,25.2
	c-2.4,4.2-5.2,8.1-8.3,11.9c-2.9,3.4-6,6.7-9.3,9.7c-2.1,1.4-3.1,2.9-3.1,4.5v0.3c0,0.2,0,0.5,0.1,0.7c0.7,2.3,2.1,3.5,4.3,3.5h0
	c0.5,0,1-0.1,1.4-0.3c0.5,0,2.6-1.8,6.3-5.3c3.1-3,6-6.2,8.7-9.5c10.7-13.9,16-27.6,16-41.4c0.2-11.2-3.9-22-11.4-30.3
	c-7.4-8-17.9-12.5-28.9-12.4c-3,0-6.1,0.3-9.1,0.8c0.5,1.1,0.8,2.4,0.8,3.6C247.4,248,247.4,248.5,247.3,249.1z"/>
<linearGradient id="SVGID_12_" gradientUnits="userSpaceOnUse" x1="-2.001372e-02" y1="384.1407" x2="806.73" y2="384.1407">
	<stop  offset="0" style="stop-color:#FFE09F"/>
	<stop  offset="0.5021" style="stop-color:#FFA89F"/>
	<stop  offset="1" style="stop-color:#FF729A"/>
</linearGradient>
<path class="st12" d="M536.2,384.9c0.3-0.5,0.5-1,0.6-1.6C536.6,383.9,536.4,384.4,536.2,384.9C536.2,384.9,536.2,384.9,536.2,384.9
	z"/>
<linearGradient id="SVGID_13_" gradientUnits="userSpaceOnUse" x1="-2.001372e-02" y1="459.875" x2="806.73" y2="459.875">
	<stop  offset="0" style="stop-color:#FFE09F"/>
	<stop  offset="0.5021" style="stop-color:#FFA89F"/>
	<stop  offset="1" style="stop-color:#FF729A"/>
</linearGradient>
<polygon class="st13" points="497.2,424.8 491.4,424.8 450.4,467.4 450.4,424.8 445.4,424.8 445.4,495 450.4,495 450.4,473.4 
	464.8,458.6 493,495 498.7,495 468,455.5 "/>
<linearGradient id="SVGID_14_" gradientUnits="userSpaceOnUse" x1="-2.001372e-02" y1="459.875" x2="806.73" y2="459.875">
	<stop  offset="0" style="stop-color:#FFE09F"/>
	<stop  offset="0.5021" style="stop-color:#FFA89F"/>
	<stop  offset="1" style="stop-color:#FF729A"/>
</linearGradient>
<polygon class="st14" points="520,461.3 555.7,461.3 555.7,456.9 520,456.9 520,429.3 560.9,429.3 560.9,424.8 515,424.8 515,495 
	561.8,495 561.8,490.5 520,490.5 "/>
<linearGradient id="SVGID_15_" gradientUnits="userSpaceOnUse" x1="-2.001372e-02" y1="459.875" x2="806.73" y2="459.875">
	<stop  offset="0" style="stop-color:#FFE09F"/>
	<stop  offset="0.5021" style="stop-color:#FFA89F"/>
	<stop  offset="1" style="stop-color:#FF729A"/>
</linearGradient>
<path class="st15" d="M393.9,424.8L364,495h5.4l9.8-23.2h33.6l9.8,23.2h5.3l-29.7-70.3H393.9z M380.4,467.7l15.7-36.8l15.3,36.8
	L380.4,467.7z"/>
<linearGradient id="SVGID_16_" gradientUnits="userSpaceOnUse" x1="-2.001372e-02" y1="324.2546" x2="806.73" y2="324.2546">
	<stop  offset="0" style="stop-color:#FFE09F"/>
	<stop  offset="0.5021" style="stop-color:#FFA89F"/>
	<stop  offset="1" style="stop-color:#FF729A"/>
</linearGradient>
<path class="st16" d="M189.8,360.5c-17.7,17.7-45.5,20-65.8,5.5l35.7-35.7l20.1-20.1c1.1-14.6,6.4-28.5,15.2-40.2
	c-30-22.9-72.8-17.1-95.7,12.9c-22.9,30-17.1,72.8,12.9,95.7c27.7,21.1,66.8,18,90.8-7.2c-4.2-4-7.9-8.4-11-13.2
	C191.3,358.9,190.6,359.7,189.8,360.5z M162.1,273.8c7.6,1.3,14.8,4.3,21.1,8.7l-21.1,21.1V273.8z M145.1,273.8v29.8L124,282.5
	C130.2,278.1,137.5,275.1,145.1,273.8z M111.9,294.6l21.1,21.1h-29.8C104.4,308.1,107.4,300.9,111.9,294.6z M111.9,353.9
	c-4.5-6.3-7.5-13.5-8.7-21.1H133L111.9,353.9z"/>
<linearGradient id="SVGID_17_" gradientUnits="userSpaceOnUse" x1="-2.001372e-02" y1="392.5796" x2="806.73" y2="392.5796">
	<stop  offset="0" style="stop-color:#FFE09F"/>
	<stop  offset="0.5021" style="stop-color:#FFA89F"/>
	<stop  offset="1" style="stop-color:#FF729A"/>
</linearGradient>
<path class="st17" d="M91.3,398.7c3.4-3.3,3.4-8.8,0.1-12.1c-1.6-1.6-3.7-2.5-6-2.6c-0.6,0-1.2,0.1-1.8,0.2
	c-0.5,0.1-1.1,0.3-1.5,0.5c-0.5,0.2-1.1,0.4-1.5,0.8c-0.4,0.3-0.9,0.7-1.3,1c-3.4,3.3-3.4,8.8-0.1,12.1
	C82.5,402,87.9,402,91.3,398.7z"/>
<linearGradient id="SVGID_18_" gradientUnits="userSpaceOnUse" x1="-2.001372e-02" y1="426.6759" x2="806.73" y2="426.6759">
	<stop  offset="0" style="stop-color:#FFE09F"/>
	<stop  offset="0.5021" style="stop-color:#FFA89F"/>
	<stop  offset="1" style="stop-color:#FF729A"/>
</linearGradient>
<path class="st18" d="M125.5,420.6c-2.5-2.4-6.1-3.1-9.3-1.8c-2.1,0.8-3.8,2.5-4.6,4.6c-1.3,3.2-0.6,6.8,1.8,9.3
	c0.8,0.8,1.8,1.4,2.8,1.8c1,0.4,2.1,0.7,3.3,0.7c2.3,0,4.4-0.9,6.1-2.5c2.3-2.5,3-6.1,1.8-9.3C126.9,422.4,126.3,421.4,125.5,420.6z
	"/>
<linearGradient id="SVGID_19_" gradientUnits="userSpaceOnUse" x1="-2.001372e-02" y1="426.6382" x2="806.73" y2="426.6382">
	<stop  offset="0" style="stop-color:#FFE09F"/>
	<stop  offset="0.5021" style="stop-color:#FFA89F"/>
	<stop  offset="1" style="stop-color:#FF729A"/>
</linearGradient>
<path class="st19" d="M91.4,420.6c-3.3-3.3-8.7-3.4-12.1,0c0,0,0,0,0,0c-0.8,0.8-1.4,1.8-1.8,2.8c-1.3,3.2-0.6,6.8,1.8,9.3
	c1.6,1.6,3.8,2.4,6.1,2.5c0.6,0,1.1-0.1,1.7-0.2c0.5-0.1,1.1-0.3,1.5-0.5c0.5-0.2,1.1-0.5,1.5-0.8c0.4-0.3,0.9-0.7,1.3-1
	C94.7,429.4,94.7,424,91.4,420.6C91.4,420.6,91.4,420.6,91.4,420.6z"/>
<linearGradient id="SVGID_20_" gradientUnits="userSpaceOnUse" x1="-2.001372e-02" y1="459.8746" x2="806.73" y2="459.8746">
	<stop  offset="0" style="stop-color:#FFE09F"/>
	<stop  offset="0.5021" style="stop-color:#FFA89F"/>
	<stop  offset="1" style="stop-color:#FF729A"/>
</linearGradient>
<path class="st20" d="M622.2,465.2c2-1.2,3.8-2.9,5.2-4.8c1.5-2,2.6-4.2,3.4-6.5c0.8-2.4,1.2-4.9,1.2-7.5c0-2.7-0.5-5.4-1.5-7.9
	c-1-2.6-2.4-4.9-4.3-7c-1.8-2.1-4-3.8-6.5-5c-2.6-1.3-5.4-1.9-8.2-1.9h-29.2V495h5.1v-26.5h22.8l17,26.5h5.8l-17.5-27.3
	C617.8,467.3,620.1,466.5,622.2,465.2z M587.4,463.9v-34.6h23.8c2.1,0,4.2,0.5,6.1,1.4c1.9,1,3.6,2.2,5,3.8c1.4,1.6,2.6,3.5,3.4,5.5
	c0.8,2.1,1.2,4.3,1.2,6.5c0,2.2-0.3,4.3-1,6.4c-0.7,2-1.7,3.9-3,5.5c-1.3,1.6-2.9,2.9-4.8,3.9c-1.9,1-4,1.5-6.1,1.5H587.4z"/>
<linearGradient id="SVGID_21_" gradientUnits="userSpaceOnUse" x1="-2.001372e-02" y1="459.855" x2="806.73" y2="459.855">
	<stop  offset="0" style="stop-color:#FFE09F"/>
	<stop  offset="0.5021" style="stop-color:#FFA89F"/>
	<stop  offset="1" style="stop-color:#FF729A"/>
</linearGradient>
<polygon class="st21" points="312.3,475 283,424.8 278,424.8 278,495 283,495 283,434.3 310.7,481.7 313.9,481.7 341.6,434.3 
	341.6,495 346.6,495 346.6,424.7 341.6,424.7 "/>
<linearGradient id="SVGID_22_" gradientUnits="userSpaceOnUse" x1="-3.003282e-02" y1="196.0268" x2="-1.000226e-02" y2="196.0268">
	<stop  offset="0" style="stop-color:#FFE09F"/>
	<stop  offset="0.5021" style="stop-color:#FFA89F"/>
	<stop  offset="1" style="stop-color:#FFFFFF"/>
</linearGradient>
<path class="st22" d="M0,195.4c0,0.1,0,0.3,0,0.4v0.6c0,0.1,0,0.1,0,0.2V195.4z"/>
<linearGradient id="SVGID_23_" gradientUnits="userSpaceOnUse" x1="-2.001372e-02" y1="196.0268" x2="80.0581" y2="196.0268">
	<stop  offset="0" style="stop-color:#FFE09F"/>
	<stop  offset="0.5021" style="stop-color:#FFA89F"/>
	<stop  offset="1" style="stop-color:#FF729A"/>
</linearGradient>
<path class="st23" d="M0,195.4c0,0.1,0,0.3,0,0.4v0.6c0,0.1,0,0.1,0,0.2V195.4z"/>
<linearGradient id="SVGID_24_" gradientUnits="userSpaceOnUse" x1="230.581" y1="249.7739" x2="247.44" y2="249.7739">
	<stop  offset="0" style="stop-color:#FFE09F"/>
	<stop  offset="0.5021" style="stop-color:#FFA89F"/>
	<stop  offset="1" style="stop-color:#FFFFFF"/>
</linearGradient>
<path class="st24" d="M234.2,254.5c0.4,0.3,0.9,0.6,1.5,0.8c0.5,0.2,1,0.4,1.5,0.5c2.8-1.2,5.5-2.1,8.2-2.8c0.2-0.3,0.4-0.5,0.6-0.8
	c0.3-0.5,0.6-1,0.8-1.5c0.2-0.5,0.4-1,0.5-1.5c0.1-0.6,0.2-1.1,0.2-1.7c0-1.3-0.3-2.5-0.8-3.6c-5.3,1-10.6,2.8-16,5.4
	c0.3,1.6,1.1,3.1,2.3,4.3C233.3,253.8,233.7,254.2,234.2,254.5z"/>
<linearGradient id="SVGID_25_" gradientUnits="userSpaceOnUse" x1="-2.8241" y1="247.4328" x2="813.0677" y2="247.4328">
	<stop  offset="0" style="stop-color:#FFE09F"/>
	<stop  offset="0.5021" style="stop-color:#FFA89F"/>
	<stop  offset="1" style="stop-color:#FF729A"/>
</linearGradient>
<path class="st25" d="M246.6,243.8c-0.4-0.9-0.9-1.7-1.6-2.4c-0.8-0.8-1.8-1.4-2.8-1.8c-1.6-0.7-3.3-0.9-5-0.5
	c-0.5,0.1-1.1,0.3-1.5,0.5c-0.5,0.2-1,0.4-1.5,0.8c-0.5,0.3-0.9,0.7-1.4,1c-0.8,0.8-1.4,1.8-1.8,2.8c-0.4,1-0.7,2.1-0.7,3.3
	c0,0.6,0.1,1.2,0.2,1.7c0.3,1.6,1.1,3.1,2.3,4.3c0.4,0.3,0.8,0.7,1.4,1c0.4,0.3,0.9,0.6,1.5,0.8c0.5,0.2,1,0.4,1.5,0.5c0,0,0,0,0,0
	c0.6,0.1,1.1,0.2,1.7,0.2c1.1,0,2.2-0.2,3.2-0.7c1-0.4,2-1,2.8-1.8c0.1-0.2,0.3-0.3,0.4-0.5c0.2-0.3,0.4-0.5,0.6-0.8
	c0.3-0.5,0.6-1,0.8-1.5c0.2-0.5,0.4-1,0.5-1.5c0.1-0.6,0.2-1.1,0.2-1.7C247.4,246.1,247.1,244.9,246.6,243.8z"/>
<linearGradient id="SVGID_26_" gradientUnits="userSpaceOnUse" x1="290.9076" y1="385.3897" x2="302.18" y2="385.3897">
	<stop  offset="0" style="stop-color:#FFE09F"/>
	<stop  offset="0.5021" style="stop-color:#FFA89F"/>
	<stop  offset="1" style="stop-color:#FFFFFF"/>
</linearGradient>
<path class="st26" d="M302.2,382.7v-0.2c0-0.3-0.1-0.7-0.1-1c-0.8-2.2-2.2-3.2-4.2-3.2h-0.1c-0.9,0.1-1.7,0.4-2.5,0.9
	c-2.2,4.7-3.6,9.2-4.4,13.3c2.6-1.5,5.1-3.1,7.5-4.9C300.9,386.2,302.2,384.6,302.2,382.7z"/>
<linearGradient id="SVGID_27_" gradientUnits="userSpaceOnUse" x1="-2745.718" y1="344.2165" x2="5390.918" y2="344.2165">
	<stop  offset="0" style="stop-color:#FFE09F"/>
	<stop  offset="0.5021" style="stop-color:#FFA89F"/>
	<stop  offset="1" style="stop-color:#FF729A"/>
</linearGradient>
<path class="st27" d="M302,381.5c-0.8-2.2-2.2-3.2-4.2-3.2h-0.1c-0.9,0.1-1.7,0.4-2.5,0.9c-0.4,0.2-0.8,0.5-1.2,0.8
	c-3.9,2.8-7.9,5.3-12.2,7.4c-6.3,3.2-13.1,5.5-20.1,6.7h-1c-3.4,0-6.2-2-8.3-6.1c-0.8-1.8-1.7-3.6-2.7-5.3c-2-3.6-4.5-7-7.2-10.1
	c-1.4-1.8-5.3-5.8-11.7-11.9c-5.7-5.2-10.5-9.8-14.5-13.8c-12.8-12.4-19.2-25-19.2-37.7v-0.4c0-9.3,3.2-18.7,9.5-28
	c1.5-2.6,4.5-6.1,8.8-10.6c3.4-3.3,7.1-6.2,11-8.8c3.6-2.3,7.2-4.1,10.6-5.6c-0.5-0.1-1-0.3-1.5-0.5c-0.5-0.2-1-0.4-1.5-0.8
	c-0.5-0.3-0.9-0.7-1.4-1c-1.2-1.2-1.9-2.7-2.3-4.3c-3.2,1.5-6.4,3.4-9.6,5.5c-2.8,1.7-6.8,4.9-11.8,9.6c-1.6,1.6-3.2,3.3-4.6,4.9
	c-10.8,12.9-16.1,26.3-16.1,40.2c0,12.3,4.5,23.8,13.4,34.7c1.4,2,5.3,6.1,11.7,12.4c5.2,5,7.9,7.5,8,7.5
	c6.1,5.7,10.6,10.2,13.5,13.5c6,7.1,9,12,9,14.8c0,0.7-0.2,1.4-0.5,2c-0.8,1-1.9,1.7-3.1,1.9c-3.9,0.2-7.7,0.6-11.6,1.2
	c-3,0.6-6,1.5-8.8,2.7c-2.5,1-4.9,2.4-7.1,4c-6.1,4.8-9.1,10.4-9.1,16.8v0.4c0,4,1.3,7.9,3.7,11.1c3.9,4.7,8.7,7.1,14.2,7.1h0.7
	c6.8,0,13.9-3.5,21.4-10.5c2.5-2.5,4.6-5.2,6.4-8.2c1.5-2.6,2.7-5.4,3.6-8.3c0.3-1.8,0.8-3.5,1.5-5.2c1-1.9,2.7-3.3,4.8-3.9
	c3.9-0.5,7.7-1.3,11.4-2.4c5.2-1.5,10.2-3.5,15-6c1.5-0.8,2.9-1.6,4.3-2.4c2.6-1.5,5.1-3.1,7.5-4.9c2.5-1.4,3.8-3,3.8-4.8v-0.2
	C302.2,382.2,302.1,381.9,302,381.5z M245.3,410.8c-0.9,3.4-3.2,7.2-6.8,11.3c-5.8,5.7-11.2,8.6-16,8.6c-1.5,0-3.1-0.4-4.5-1
	c-3.5-2-5.3-4.9-5.3-8.6v-0.1h0c0-4.4,2.6-8.3,7.9-11.5c2.4-1.2,4.9-2.2,7.5-2.9c3.9-0.9,7.9-1.4,11.9-1.7c0.9,0.1,1.8,0.2,2.6,0.5
	c1.7,0.5,2.9,2,2.8,3.8C245.4,409.7,245.4,410.3,245.3,410.8z"/>
<linearGradient id="SVGID_28_" gradientUnits="userSpaceOnUse" x1="443.19" y1="385.0997" x2="453.32" y2="385.0997">
	<stop  offset="0" style="stop-color:#FFE09F"/>
	<stop  offset="0.5021" style="stop-color:#FFA89F"/>
	<stop  offset="1" style="stop-color:#FFFFFF"/>
</linearGradient>
<path class="st28" d="M453.3,382.6l-0.1-1c-0.8-2.3-2.3-3.4-4.3-3.4c-0.7,0-1.4,0.2-2.1,0.6c-0.3,0.2-0.6,0.5-1,0.7
	c-1.7,3.8-2.7,7.9-2.7,12.1c0,0.1,0,0.3,0,0.4c2.2-1.5,4.3-3,6.4-4.6C452.1,386,453.3,384.4,453.3,382.6z"/>
<linearGradient id="SVGID_29_" gradientUnits="userSpaceOnUse" x1="-3303.2141" y1="387.8663" x2="3516.1519" y2="387.8663">
	<stop  offset="0" style="stop-color:#FFE09F"/>
	<stop  offset="0.5021" style="stop-color:#FFA89F"/>
	<stop  offset="1" style="stop-color:#FF729A"/>
</linearGradient>
<path class="st29" d="M528.8,379.9c-4.4,3.2-9.2,5.8-14.3,7.7c-6.8,2.6-14,3.9-21.2,4c-4.1,0-8.1-0.5-12-1.6c-1.8-0.6-3.4-1.6-4.6-3
	c-1.4-1.5-2.6-3.2-3.4-5.1c-0.7-1.8-1.6-3.5-2.7-5.1c-1.2-1.7-2.6-3.2-4.3-4.4c-2.2-1.8-5-2.7-7.8-2.8c-3.3,0-6.4,1.5-8.6,3.9
	c-1.6,1.8-2.9,3.8-3.9,6c0,0,0,0,0,0c-1.7,3.8-2.7,7.9-2.7,12.1c0,0.1,0,0.3,0,0.4c0.1,4,1.2,7.3,3.3,9.8c2.6,2.8,6.4,4.4,10.2,4.4
	c3.5,0,6.9-1.1,9.7-3c0.7-0.5,1.3-1,1.9-1.5c0.5-0.5,1.1-1.1,1.7-1.5c1.7-1.4,3.9-2.1,6.1-2.1c0.6,0,1.2,0.1,1.8,0.2
	c5,1.5,10.2,2.2,15.4,2.2c6.1,0,12.1-0.9,17.9-2.5c5.2-1.4,10.2-3.5,14.9-6c0-0.1,0-0.1,0-0.2C526.3,387.5,527.2,383.6,528.8,379.9z
	 M463.3,394.5c-1.6,1.8-3.9,2.9-6.4,2.9c-2.1,0-3.5-0.7-4.2-2c-0.5-1.2-0.7-2.5-0.7-3.8c0-2.3,0.4-4.6,1.2-6.8
	c0.4-1.1,0.9-2.3,1.5-3.3c1.3-2.2,2.6-3.3,3.8-3.3c1.1,0.1,2.2,0.6,3,1.5c0.5,0.4,0.9,0.8,1.3,1.3c1.7,2.1,2.7,4.6,2.7,7.3
	C465.6,390.6,464.7,392.8,463.3,394.5z"/>
<linearGradient id="SVGID_30_" gradientUnits="userSpaceOnUse" x1="526.2401" y1="384.9662" x2="536.9138" y2="384.9662">
	<stop  offset="0" style="stop-color:#FFE09F"/>
	<stop  offset="0.5021" style="stop-color:#FFA89F"/>
	<stop  offset="1" style="stop-color:#FFFFFF"/>
</linearGradient>
<path class="st30" d="M535.3,386c0.4-0.3,0.7-0.7,0.9-1.1c0,0,0,0,0,0c0.2-0.5,0.4-1,0.6-1.6c0.2-1.2,0-2.5-0.9-3.6
	c-0.8-1-2.1-1.6-3.4-1.6c-0.8,0-1.7,0.2-2.4,0.7c-0.5,0.3-0.9,0.7-1.4,1c-1.6,3.7-2.5,7.7-2.6,11.7c0,0.1,0,0.1,0,0.2
	C529.4,390.1,532.4,388.2,535.3,386C535.3,386,535.3,386,535.3,386z"/>
<linearGradient id="SVGID_31_" gradientUnits="userSpaceOnUse" x1="-3731.6001" y1="387.8663" x2="2795.6152" y2="387.8663">
	<stop  offset="0" style="stop-color:#FFE09F"/>
	<stop  offset="0.5021" style="stop-color:#FFA89F"/>
	<stop  offset="1" style="stop-color:#FF729A"/>
</linearGradient>
<path class="st31" d="M612.3,384.1c0-1.4,0.1-3,0.3-4.8c-4.6,3.4-9.7,6.2-15,8.3c-6.8,2.6-14,3.9-21.2,4c-4.1,0-8.1-0.5-12-1.6
	c-1.8-0.6-3.4-1.6-4.6-3c-1.4-1.5-2.6-3.2-3.4-5.1c-0.7-1.8-1.7-3.5-2.7-5.1c-1.2-1.7-2.6-3.2-4.3-4.4c-2.2-1.8-5-2.7-7.8-2.8
	c-3.3,0-6.4,1.5-8.5,3.9c-1.6,1.8-2.9,3.8-3.9,6c-0.1,0.1-0.1,0.3-0.2,0.4c-1.6,3.7-2.5,7.7-2.6,11.7c0,0.1,0,0.1,0,0.2
	c0,4.1,1.1,7.5,3.3,10.1c2.6,2.8,6.4,4.4,10.3,4.4c3.5,0,6.9-1.1,9.8-3.1c0.7-0.5,1.3-1,1.9-1.5c0.5-0.5,1.1-1.1,1.6-1.5
	c1.8-1.4,3.9-2.1,6.1-2.1c0.6,0,1.2,0.1,1.8,0.2c5,1.5,10.2,2.2,15.4,2.2c6.1,0,12.1-0.9,17.9-2.5c6.4-1.8,12.4-4.4,18.1-7.8
	c-0.1-1.3-0.2-2.6-0.2-4V384.1z M545.1,395.7c-1.5,1.1-3.3,1.8-5.2,1.8c-2.1,0-3.5-0.7-4.3-2c-0.5-1.2-0.7-2.5-0.7-3.8
	c0-2.3,0.4-4.6,1.2-6.8c0,0,0,0,0,0c0.2-0.5,0.4-1,0.6-1.6c0.3-0.6,0.5-1.2,0.9-1.8c1.3-2.2,2.6-3.3,3.8-3.3c1.2,0.1,2.2,0.6,3,1.5
	c0.5,0.4,0.9,0.8,1.3,1.3c1.7,2,2.7,4.6,2.7,7.3C548.7,391.2,547.4,393.9,545.1,395.7z"/>
<linearGradient id="SVGID_32_" gradientUnits="userSpaceOnUse" x1="612.33" y1="384.0376" x2="620.0101" y2="384.0376">
	<stop  offset="0" style="stop-color:#FFE09F"/>
	<stop  offset="0.5021" style="stop-color:#FFA89F"/>
	<stop  offset="1" style="stop-color:#FFFFFF"/>
</linearGradient>
<path class="st32" d="M620,382.5c0-1-0.4-2-1-2.8c-0.8-1-2.1-1.6-3.4-1.6c-0.8,0-1.7,0.2-2.4,0.7c-0.2,0.2-0.4,0.3-0.7,0.5
	c-0.2,1.9-0.3,3.5-0.3,4.8v1.7c0,1.4,0.1,2.7,0.2,4c2-1.2,3.9-2.5,5.8-3.9C619.4,385.2,620,383.9,620,382.5z"/>
<linearGradient id="SVGID_33_" gradientUnits="userSpaceOnUse" x1="-8527.6846" y1="343.9392" x2="3484.2595" y2="343.9392">
	<stop  offset="0" style="stop-color:#FFE09F"/>
	<stop  offset="0.5021" style="stop-color:#FFA89F"/>
	<stop  offset="1" style="stop-color:#FF729A"/>
</linearGradient>
<path class="st33" d="M703.5,324.2c-0.8-1.3-2.2-2.2-3.7-2.2c-1.7,0.3-3.3,0.7-4.9,1.3c-3.8,1.1-7.6,1.9-11.5,2.5
	c-3.2,0.4-6.5,0.7-9.7,0.8c-0.6,0-1.3-0.1-1.9-0.3c-1.1-0.2-1.9-1.1-1.8-2.2c0-0.6,0.1-1.3,0.3-1.9c5.5-11.5,8.2-21,8.2-28.5
	c0.1-4.5-1.2-9-3.7-12.7c-2.8-4-7.4-6.4-12.3-6.3c-5,0-9.9,2.1-14.8,6.2l-1.3,1.2c-1.6,1.5-3.1,3.2-4.5,5
	c-4.3,5.7-8.9,15.1-13.7,28.1c-0.3,1.2-0.8,2.4-1.4,3.6c-0.8,0.9-1.7,1.7-2.7,2.3c-1.4,0.8-3,1.3-4.7,1.4c-5.6,0-11.2,0.6-16.7,2
	c-3.9,1-7.6,2.4-11.1,4.3c-1.2,0.8-1.9,2.1-1.9,3.6c0,0.6,0.2,1.2,0.4,1.8c0.7,1.6,2.3,2.6,4,2.6c0.5,0,1-0.1,1.5-0.3
	c1.8-0.9,3.7-1.7,5.7-2.4c2.3-0.8,4.6-1.4,7-1.9c3-0.5,6.1-0.8,9.1-0.9c0.5,0,1,0.1,1.5,0.3c1.7,0.7,2.7,2.3,2.6,4.1v0.3
	c-1.6,5.7-3,11.3-4.3,16.8c-2.5,11.6-4.1,20.5-4.7,26.6c-0.2,1.9-0.3,3.5-0.3,4.8v1.7c0,1.4,0.1,2.7,0.2,4c0.6,6,2.6,11,6.1,15.1
	c4.9,5.4,11.7,8.2,20.4,8.2c6.6,0,14-1.5,22.1-4.5c10.7-3.8,21.7-9.9,33-18.1c0.1-3.5,0.4-7.4,0.9-11.6c-6.1,4.9-12.6,9.3-19.3,13.3
	c-4.9,2.8-10.1,5.3-15.3,7.5c-8.3,3.2-15.3,4.8-20.8,4.8h-1.1c-3,0-5.9-0.5-8.7-1.6c-3.2-1.4-5.8-4-7.1-7.3
	c-0.5-1.5-0.7-3.2-0.7-4.8c0-3.6,1.1-7.1,3.1-10c0-0.2,0.6-0.8,1.9-1.9c2.2-1.9,5.8-5.5,10.8-10.7c7.7-8.3,14.7-17.2,21.1-26.5
	c1-1.4,2.2-2.6,3.5-3.6c2.1-1.6,4.6-2.5,7.2-2.6c9.1,0.1,18.1-1.1,26.8-3.5c1.9-0.5,3.7-1.1,5.5-1.8c1.3-0.8,2.1-2.2,2.1-3.7
	C704.1,325.6,703.9,324.8,703.5,324.2z M638.8,353.9c-2.9,3.4-5.7,6.6-8.6,9.6c-1.5,1.9-2.9,2.8-4.2,2.8h0c-0.3,0-0.6,0-1,0
	c-0.9-0.4-1.4-1.2-1.3-2.2v-0.6c1.6-8.4,3.6-16.5,5.8-24.3c2-4.4,5.1-6.5,9.3-6.5h1.2c4.3,0.5,7.3,0.9,8.8,1.1
	c1.7,0.4,2.5,1.2,2.5,2.3C651.4,337.7,647.2,343.7,638.8,353.9z M666.7,308.3c-1.6,4.2-3.3,8.3-5.4,12.2c-0.5,1-1.2,2-2,2.8
	c-1.5,1.4-3.5,2.2-5.5,2.3c-0.8,0-3.3-0.3-7.7-0.9c-2.7-0.2-5.4-0.6-8.1-1.1c-1.2-0.5-2-1.7-1.9-3v-0.4c0-0.8,0.1-1.5,0.3-2.3
	c4-11.1,7.9-19.3,11.7-24.8c1.9-2.8,4.3-5.2,7.1-7.2c2.7-1.7,4.9-2.5,6.8-2.5h0.7c1.6,0,3.1,0.7,4.3,1.8c1.9,2,2.8,4.8,2.8,8.4
	C669.8,297.6,668.7,302.5,666.7,308.3z"/>
<linearGradient id="SVGID_34_" gradientUnits="userSpaceOnUse" x1="694.2275" y1="384.3951" x2="701.9003" y2="384.3951">
	<stop  offset="0" style="stop-color:#FFE09F"/>
	<stop  offset="0.5021" style="stop-color:#FFA89F"/>
	<stop  offset="1" style="stop-color:#FFFFFF"/>
</linearGradient>
<path class="st34" d="M701.9,382.6c0-0.7-0.2-1.5-0.5-2.1c-0.8-1.4-2.4-2.3-4-2.2c-0.7,0-1.5,0.2-2.1,0.6c0,0-0.1,0.1-0.1,0.1
	c-0.5,4.2-0.8,8.1-0.9,11.6c1.8-1.3,3.6-2.6,5.4-4.1C701,385.7,701.9,384.2,701.9,382.6z"/>
<linearGradient id="SVGID_35_" gradientUnits="userSpaceOnUse" x1="-9490.418" y1="343.5742" x2="2344.5779" y2="343.5742">
	<stop  offset="0" style="stop-color:#FFE09F"/>
	<stop  offset="0.5021" style="stop-color:#FFA89F"/>
	<stop  offset="1" style="stop-color:#FF729A"/>
</linearGradient>
<path class="st35" d="M806.2,380.6c-0.6-1.3-2-2.2-3.4-2.3h-0.7c-0.8,0-1.6,0.3-2.2,0.8c-2.4,2.3-5,4.6-7.7,6.6
	c-4.3,3.4-8.9,6.4-13.8,8.9c-9.7,4.8-17.7,7.2-24,7.2h-0.6c-3.1,0-5.4-0.9-6.8-2.7c-1.1-1.7-2-3.6-2.6-5.5c-1.1-4.8-2.1-8.6-3-11.4
	c-2-5.8-6.1-8.8-12.2-8.8c-4.9,0-10.1,3.2-15.7,9.5c-4,4.7-7.6,9.7-10.8,15h-0.1v-0.8v-3.9c-0.2-4.2,1.2-8.3,3.9-11.6l6.4-6.6
	c7.3-7.7,13-14.3,17.1-19.6c5.1-6.4,9.9-13,14.3-19.9c10.5-16.1,15.8-29.6,15.8-40.4v-0.3c0.1-4.2-0.9-8.3-3-12
	c-3.2-5-7.4-7.5-12.9-7.5h-0.3c-6.4,0-12.7,3.6-18.8,10.8c-2.8,3.6-5.1,7.4-7.1,11.5c-5.9,12.1-11.4,27.6-16.4,46.5
	c-3.3,13.4-5.5,25-6.7,34.9c-0.5,4.2-0.8,8.1-0.9,11.6c0,1.1-0.1,2.1-0.1,3.1v2.4c0,4.1,0.4,8.3,1.3,12.3c0.8,2.3,2.2,3.4,4.3,3.4
	c2.1,0.1,4.1-0.9,5.3-2.7c1.9-2.3,3.7-4.8,5.4-7.3c8.4-13.2,14.7-19.8,18.7-19.8c2.2,0,3.8,1.7,4.8,5c0.4,1.3,1.2,4.6,2.5,9.8
	c2.6,9,8.3,13.4,17,13.4h1.1c7.2,0,15.7-2.3,25.6-6.9c8.6-4.3,16.6-9.8,23.7-16.3c1.8-1.4,2.8-2.9,2.8-4.4v-0.3
	C806.7,381.8,806.5,381.2,806.2,380.6z M707.5,358c2.2-10.1,4.7-19.5,7.5-28.3c4.9-15.7,9.9-27.4,14.8-35.1c1.5-2.3,3.4-4.5,5.4-6.4
	c3.3-2.9,6.3-4.3,8.8-4.3h0.7c1.2,0,2.4,0.4,3.4,1.2c2.4,2,3.6,5.3,3.6,9.9c0,8-3.6,18-10.8,30c-4.4,7.4-9.2,14.5-14.5,21.3
	c-3,4-6.8,8.5-11.2,13.7c-2.5,2.2-4.4,3.3-5.7,3.3l-0.4-0.1c-1.2-0.3-1.7-1.4-1.7-3.3L707.5,358z"/>
</svg>
