<?xml version="1.0" encoding="utf-8"?>
<!-- Generator: Adobe Illustrator 23.0.0, SVG Export Plug-In . SVG Version: 6.00 Build 0)  -->
<svg version="1.1" id="Calque_1" xmlns="http://www.w3.org/2000/svg" xmlns:xlink="http://www.w3.org/1999/xlink" x="0px" y="0px"
	 viewBox="0 0 448 512" style="enable-background:new 0 0 448 512;" xml:space="preserve">
<style type="text/css">
	.st0{fill:url(#SVGID_1_);}
</style>
<linearGradient id="SVGID_1_" gradientUnits="userSpaceOnUse" x1="45" y1="256" x2="493" y2="256">
	<stop  offset="0" style="stop-color:#FFA89F"/>
	<stop  offset="8.011764e-02" style="stop-color:#FFB99F"/>
	<stop  offset="0.1959" style="stop-color:#FFCB9F"/>
	<stop  offset="0.3373" style="stop-color:#FFD79F"/>
	<stop  offset="0.5295" style="stop-color:#FFDE9F"/>
	<stop  offset="1" style="stop-color:#FFE09F"/>
</linearGradient>
<path class="st0" d="M448,80v352c0,26.5-21.5,48-48,48h-85.3V302.8h60.6l8.7-67.6h-69.3V192c0-19.6,5.4-32.9,33.5-32.9H384V98.7
	c-6.2-0.8-27.4-2.7-52.2-2.7c-51.6,0-87,31.5-87,89.4v49.9H184v67.6h60.9V480H48c-26.5,0-48-21.5-48-48V80c0-26.5,21.5-48,48-48h352
	C426.5,32,448,53.5,448,80z"/>
</svg>
